<svg width="69" height="68" viewBox="0 0 69 68" fill="none" xmlns="http://www.w3.org/2000/svg">
<path fill-rule="evenodd" clip-rule="evenodd" d="M35 59H27C19.458 59 15.686 59 13.344 56.0114C11 53.0253 11 48.216 11 38.6V37.4856C11 35.2595 11 33.5867 11.086 32.225H19.19C21.384 32.225 23.324 32.225 24.886 31.9573C26.58 31.6666 28.274 31.001 29.656 29.239C31.04 27.4744 31.562 25.3145 31.79 23.1546C32 21.1631 32 18.6921 32 15.8922L31.98 8.66555C31.98 8.4539 31.966 8.24735 31.94 8.04335C32.758 8 33.728 8 34.94 8C42.522 8 46.314 8 48.656 10.9886C51 13.9746 51 18.7839 51 28.4V38.6C51 48.216 51 53.0253 48.656 56.0114C46.314 59 42.542 59 35 59Z" fill="#6B8FCD"/>
<path d="M32.218 42.5086C31.9534 42.8645 31.8062 43.3339 31.8062 43.8217C31.8062 44.3095 31.9534 44.779 32.218 45.1348L36.024 50.254C36.3018 50.6167 36.6816 50.827 37.0814 50.8394C37.4811 50.8519 37.8687 50.6655 38.1604 50.3206C38.4521 49.9756 38.6244 49.4998 38.6402 48.996C38.656 48.4921 38.5139 48.0007 38.2447 47.6278L36.8441 45.7414H43.4776C43.8814 45.7414 44.2686 45.5392 44.5541 45.1791C44.8396 44.8191 45 44.3308 45 43.8217C45 43.3126 44.8396 42.8243 44.5541 42.4643C44.2686 42.1043 43.8814 41.902 43.4776 41.902H36.842L38.2447 40.0156C38.5139 39.6427 38.656 39.1513 38.6402 38.6474C38.6244 38.1436 38.4521 37.6678 38.1604 37.3229C37.8687 36.9779 37.4811 36.7915 37.0814 36.804C36.6816 36.8164 36.3018 37.0267 36.024 37.3894L32.218 42.5086ZM32.2931 8.6527L32.3134 15.9092C32.3134 18.7171 32.3134 21.1973 32.1003 23.1989C31.8689 25.3669 31.3391 27.5349 29.9344 29.3036C28.5339 31.0723 26.8125 31.7429 25.0933 32.0347C23.5079 32.3035 21.539 32.3035 19.3122 32.3035H11.0873C11.0609 32.7002 11.0426 33.1251 11.0304 33.5833H11C11 32.8973 11 32.5543 11.0203 32.1499C11.1766 29.7176 11.8482 27.383 12.9649 25.39C13.1557 25.0623 13.2856 24.8678 13.5434 24.4762C15.1531 22.0497 17.2722 19.0242 19.1194 16.9458C20.7636 15.0927 23.0187 13.068 24.9857 11.4145C26.6745 9.99137 27.5189 9.2798 28.678 8.75252C29.0151 8.60039 29.3579 8.46885 29.7051 8.35834C30.4845 8.11518 31.2437 8.03072 32.3134 8L32.2931 8.6527Z" fill="#263471"/>
<circle cx="44" cy="47" r="14" fill="#03C96A"/>
<path d="M40.676 43.3453C40.062 43.0947 39.801 42.3653 40.1694 41.8347C40.9139 40.7737 42.1573 40 43.7998 40C45.6035 40 46.8392 40.7884 47.4685 41.7758C48.0058 42.6232 48.3205 44.2074 47.4916 45.3863C46.5705 46.6905 45.6879 47.0884 45.212 47.9284C45.0969 48.1274 45.0278 48.2895 44.9818 48.6211C44.9127 49.1589 44.4522 49.5789 43.8842 49.5789C43.2165 49.5789 42.6716 49.0263 42.7483 48.3853C42.7944 48.0095 42.8865 47.6189 43.1014 47.2505C43.6924 46.2263 44.8283 45.6221 45.4883 44.7158C46.1868 43.7653 45.7954 41.9895 43.8152 41.9895C42.9172 41.9895 42.3338 42.4389 41.9731 42.9768C41.7045 43.3968 41.1442 43.5295 40.676 43.3453ZM45.3425 52.5263C45.3425 53.3368 44.6518 54 43.8075 54C42.9632 54 42.2724 53.3368 42.2724 52.5263C42.2724 51.7158 42.9632 51.0526 43.8075 51.0526C44.6518 51.0526 45.3425 51.7158 45.3425 52.5263Z" fill="white"/>
</svg>
