<svg width="68" height="68" viewBox="0 0 68 68" fill="none" xmlns="http://www.w3.org/2000/svg">
<path d="M3 58V29.6316L22.375 16.7368L41.75 29.6316V58H28.8333V39.9474H15.9167V58H3ZM65 9V58H46.9167V26.8721L44.3333 25.17V19.3158H39.1667V21.7142L28.8333 14.8542V9H65ZM57.25 39.9474H52.0833V45.1053H57.25V39.9474ZM57.25 29.6316H52.0833V34.7895H57.25V29.6316ZM57.25 19.3158H52.0833V24.4737H57.25V19.3158Z" fill="#263471"/>
<path d="M22.5 16L42 30V58H29.8125V41.6667H15.1875V58H3V30L22.5 16Z" fill="#6B8FCD" stroke="#6B8FCD" stroke-width="2"/>
<circle cx="54" cy="53" r="14" fill="#03C96A"/>
<path d="M59.7435 52.282C59.5679 51.0186 58.9818 49.8479 58.0755 48.9504C57.1691 48.0528 55.9928 47.4781 54.7277 47.3149C53.4626 47.1517 52.1789 47.4089 51.0744 48.047C49.9699 48.6851 49.1059 49.6686 48.6153 50.8461M48.2563 47.9743V50.8461H51.1281M48.2563 53.7179C48.4319 54.9813 49.018 56.152 49.9244 57.0495C50.8308 57.9471 52.0071 58.5218 53.2722 58.685C54.5373 58.8482 55.8209 58.591 56.9254 57.9529C58.0299 57.3148 58.894 56.3313 59.3846 55.1538M59.7435 58.0256V55.1538H56.8717" stroke="white" stroke-width="2" stroke-linecap="round" stroke-linejoin="round"/>
</svg>
