<svg width="69" height="68" viewBox="0 0 69 68" fill="none" xmlns="http://www.w3.org/2000/svg">
<path fill-rule="evenodd" clip-rule="evenodd" d="M35 59H27C19.458 59 15.686 59 13.344 56.0114C11 53.0253 11 48.216 11 38.6V37.4856C11 35.2595 11 33.5867 11.086 32.225H19.19C21.384 32.225 23.324 32.225 24.886 31.9573C26.58 31.6666 28.274 31.001 29.656 29.239C31.04 27.4744 31.562 25.3145 31.79 23.1546C32 21.1631 32 18.6921 32 15.8922L31.98 8.66555C31.98 8.4539 31.966 8.24735 31.94 8.04335C32.758 8 33.728 8 34.94 8C42.522 8 46.314 8 48.656 10.9886C51 13.9746 51 18.7839 51 28.4V38.6C51 48.216 51 53.0253 48.656 56.0114C46.314 59 42.542 59 35 59Z" fill="#6B8FCD"/>
<path d="M32.218 42.5086C31.9534 42.8645 31.8062 43.3339 31.8062 43.8217C31.8062 44.3095 31.9534 44.779 32.218 45.1348L36.024 50.254C36.3018 50.6167 36.6816 50.827 37.0814 50.8394C37.4811 50.8519 37.8687 50.6655 38.1604 50.3206C38.4521 49.9756 38.6244 49.4998 38.6402 48.996C38.656 48.4921 38.5139 48.0007 38.2447 47.6278L36.8441 45.7414H43.4776C43.8814 45.7414 44.2686 45.5392 44.5541 45.1791C44.8396 44.8191 45 44.3308 45 43.8217C45 43.3126 44.8396 42.8243 44.5541 42.4643C44.2686 42.1043 43.8814 41.902 43.4776 41.902H36.842L38.2447 40.0156C38.5139 39.6427 38.656 39.1513 38.6402 38.6474C38.6244 38.1436 38.4521 37.6678 38.1604 37.3229C37.8687 36.9779 37.4811 36.7915 37.0814 36.804C36.6816 36.8164 36.3018 37.0267 36.024 37.3894L32.218 42.5086ZM32.2931 8.6527L32.3134 15.9092C32.3134 18.7171 32.3134 21.1973 32.1003 23.1989C31.8689 25.3669 31.3391 27.5349 29.9344 29.3036C28.5339 31.0723 26.8125 31.7429 25.0933 32.0347C23.5079 32.3035 21.539 32.3035 19.3122 32.3035H11.0873C11.0609 32.7002 11.0426 33.1251 11.0304 33.5833H11C11 32.8973 11 32.5543 11.0203 32.1499C11.1766 29.7176 11.8482 27.383 12.9649 25.39C13.1557 25.0623 13.2856 24.8678 13.5434 24.4762C15.1531 22.0497 17.2722 19.0242 19.1194 16.9458C20.7636 15.0927 23.0187 13.068 24.9857 11.4145C26.6745 9.99137 27.5189 9.2798 28.678 8.75252C29.0151 8.60039 29.3579 8.46885 29.7051 8.35834C30.4845 8.11518 31.2437 8.03072 32.3134 8L32.2931 8.6527Z" fill="#263471"/>
<circle cx="44" cy="47" r="14" fill="#ED4D49"/>
<path d="M49.334 42.8C49.5039 42.8002 49.6674 42.8685 49.791 42.991C49.9145 43.1135 49.9889 43.2809 49.9989 43.459C50.0088 43.6371 49.9536 43.8125 49.8445 43.9493C49.7355 44.0861 49.5808 44.174 49.412 44.1951L49.334 44.2H49.28L48.6672 51.9C48.6673 52.4356 48.4723 52.9511 48.1223 53.3408C47.7723 53.7305 47.2937 53.9651 46.7843 53.9965L46.667 54H41.333C40.2675 54 39.3968 53.1257 39.3381 52.075L39.3348 51.9581L38.7193 44.2H38.666C38.4961 44.1998 38.3326 44.1315 38.209 44.009C38.0855 43.8865 38.0111 43.7191 38.0011 43.541C37.9912 43.3629 38.0464 43.1875 38.1555 43.0507C38.2645 42.9139 38.4192 42.826 38.588 42.8049L38.666 42.8H49.334ZM45.3335 40C45.6872 40 46.0263 40.1475 46.2764 40.4101C46.5265 40.6726 46.667 41.0287 46.667 41.4C46.6668 41.5784 46.6017 41.75 46.4851 41.8798C46.3684 42.0095 46.209 42.0876 46.0393 42.098C45.8697 42.1085 45.7026 42.0505 45.5723 41.936C45.442 41.8215 45.3582 41.6591 45.3382 41.4819L45.3335 41.4H42.6665L42.6618 41.4819C42.6418 41.6591 42.558 41.8215 42.4277 41.936C42.2974 42.0505 42.1303 42.1085 41.9607 42.098C41.791 42.0876 41.6316 42.0095 41.5149 41.8798C41.3983 41.75 41.3332 41.5784 41.333 41.4C41.3329 41.0468 41.46 40.7066 41.6887 40.4476C41.9175 40.1886 42.231 40.03 42.5665 40.0035L42.6665 40H45.3335Z" fill="white"/>
</svg>
