<svg width="68" height="68" viewBox="0 0 68 68" fill="none" xmlns="http://www.w3.org/2000/svg">
<path d="M43.0646 54.375C43.0646 56.0319 41.7215 57.375 40.0646 57.375H7.10102C5.44416 57.375 4.10102 56.0319 4.10102 54.375V38.25H43.0646V54.375Z" fill="#263471"/>
<path d="M12.3039 11.5C12.3039 9.84315 13.647 8.5 15.3039 8.5H48.2675C49.9244 8.5 51.2675 9.84315 51.2675 11.5V57.375H12.3039V11.5Z" fill="#6B8FCD"/>
<rect x="20.5068" y="14.875" width="24.6086" height="4.25" rx="2.125" fill="white"/>
<rect x="22.5575" y="23.375" width="20.5072" height="4.25" rx="2.125" fill="white"/>
<g clip-path="url(#clip0_1_14227)">
<path d="M45.4611 35.8399C48.9655 34.7097 52.8291 35.4603 55.615 37.8325C57.8278 39.71 59.1082 42.3838 59.2104 45.1864L59.2152 45.5456L59.3605 45.5507C63.0325 45.732 65.9749 48.8735 66.1457 52.786L66.1521 53.1435C66.1521 57.2221 63.1427 60.5517 59.3589 60.738L59.0236 60.7465H40.0601L39.7056 60.733C35.0118 60.5466 31.2169 56.668 31.0365 51.8151L31.0285 51.4491C31.0285 46.7944 34.3493 42.9599 38.6663 42.2703L38.8483 42.2432L38.9601 41.9365C40.0186 39.1915 42.2425 37.0124 45.0732 35.9754L45.4627 35.8399H45.4611Z" fill="#03C96A"/>
<path d="M46.0688 50.9193C46.6437 51.3034 47.3196 51.5085 48.011 51.5086C48.9382 51.5076 49.8271 51.1388 50.4828 50.4831C51.1384 49.8275 51.5072 48.9386 51.5082 48.0114L46.0688 50.9193ZM46.0688 50.9193C45.4938 50.5351 45.0456 49.989 44.781 49.35M46.0688 50.9193L44.781 49.35M44.781 49.35C44.5163 48.7111 44.4471 48.008 44.582 47.3297M44.781 49.35L44.582 47.3297M44.582 47.3297C44.7169 46.6514 45.0499 46.0284 45.539 45.5393M44.582 47.3297L45.539 45.5393M45.539 45.5393C46.028 45.0503 46.651 44.7173 47.3293 44.5824M45.539 45.5393L47.3293 44.5824M47.3293 44.5824C48.0076 44.4474 48.7107 44.5167 49.3497 44.7813M47.3293 44.5824L49.3497 44.7813M49.3497 44.7813C49.9886 45.046 50.5347 45.4942 50.9189 46.0692M49.3497 44.7813L50.9189 46.0692M50.9189 46.0692C51.3031 46.6441 51.5081 47.3199 51.5082 48.0113L50.9189 46.0692ZM55.219 53.806L55.2191 53.8059L55.2129 53.7998L52.5374 51.1243C53.2466 50.0938 53.5863 48.8479 53.4919 47.5915C53.3861 46.1834 52.7432 44.8698 51.696 43.9224C50.6488 42.9751 49.2776 42.4664 47.866 42.5017C46.4543 42.537 45.1102 43.1135 44.1117 44.1121C43.1132 45.1106 42.5367 46.4547 42.5014 47.8663C42.4661 49.278 42.9747 50.6492 43.9221 51.6964C44.8694 52.7435 46.183 53.3865 47.5912 53.4923C48.8476 53.5867 50.0935 53.247 51.1239 52.5378L53.7994 55.2133L53.7994 55.2134L53.8056 55.2194C53.9941 55.4015 54.2466 55.5022 54.5087 55.5C54.7708 55.4977 55.0215 55.3926 55.2069 55.2072C55.3922 55.0219 55.4973 54.7712 55.4996 54.5091C55.5019 54.247 55.4011 53.9945 55.219 53.806Z" fill="white" stroke="white"/>
</g>
<defs>
<clipPath id="clip0_1_14227">
<rect width="37.1616" height="39.3131" fill="white" transform="translate(30.8385 27.0322)"/>
</clipPath>
</defs>
</svg>
